<svg xmlns="http://www.w3.org/2000/svg" viewBox="0 0 800 340" role="img" aria-label="JES Type A B1 B2 B3 and AVA schematic">
  <rect width="800" height="340" fill="#F4F8F8"/>
  <g font-family="ui-sans-serif, system-ui, sans-serif">
    <text x="400" y="22" text-anchor="middle" font-size="13" font-weight="700" fill="#1A2A2B">Vessels</text>
    <g>
      <rect x="16" y="32" width="180" height="150" rx="12" fill="#12383A"/>
      <g fill="none" stroke="#C47848" stroke-width="1.4">
        <circle cx="48" cy="64" r="7"/><circle cx="78" cy="64" r="7"/><circle cx="108" cy="64" r="7"/>
        <circle cx="138" cy="64" r="7"/><circle cx="168" cy="64" r="7"/>
        <circle cx="48" cy="98" r="7"/><circle cx="78" cy="98" r="7"/><circle cx="108" cy="98" r="7"/>
        <circle cx="138" cy="98" r="7"/><circle cx="168" cy="98" r="7"/>
        <circle cx="48" cy="132" r="7"/><circle cx="78" cy="132" r="7"/><circle cx="108" cy="132" r="7"/>
        <circle cx="138" cy="132" r="7"/><circle cx="168" cy="132" r="7"/>
      </g>
      <text x="106" y="202" text-anchor="middle" font-size="15" font-weight="700" fill="#1A2A2B">Type A</text>
      <text x="106" y="218" text-anchor="middle" font-size="11" fill="#5A6E70">regular loops</text>
    </g>
    <g>
      <rect x="212" y="32" width="180" height="150" rx="12" fill="#12383A"/>
      <g fill="none" stroke="#C47848" stroke-width="2">
        <ellipse cx="244" cy="64" rx="10" ry="8"/>
        <ellipse cx="282" cy="70" rx="13" ry="7"/>
        <ellipse cx="322" cy="62" rx="9" ry="11"/>
        <ellipse cx="360" cy="72" rx="12" ry="8"/>
        <ellipse cx="250" cy="108" rx="14" ry="8"/>
        <ellipse cx="300" cy="114" rx="9" ry="12"/>
        <ellipse cx="348" cy="106" rx="13" ry="9"/>
        <ellipse cx="238" cy="148" rx="10" ry="9"/>
        <ellipse cx="286" cy="152" rx="15" ry="7"/>
        <ellipse cx="340" cy="146" rx="11" ry="10"/>
      </g>
      <text x="302" y="202" text-anchor="middle" font-size="15" font-weight="700" fill="#1A2A2B">Type B1</text>
      <text x="302" y="218" text-anchor="middle" font-size="11" fill="#5A6E70">irregular but looped</text>
    </g>
    <g>
      <rect x="408" y="32" width="180" height="150" rx="12" fill="#12383A"/>
      <g fill="none" stroke="#C47848" stroke-width="2.2" stroke-linecap="round">
        <path d="M428 58 C448 70 456 92 444 112"/>
        <path d="M468 50 C470 78 490 88 486 120"/>
        <path d="M512 56 C528 74 518 100 536 118"/>
        <path d="M556 62 C548 90 568 104 560 140"/>
        <path d="M430 128 C450 140 470 132 488 154"/>
        <path d="M520 138 C540 128 560 150 572 160"/>
      </g>
      <text x="498" y="202" text-anchor="middle" font-size="15" font-weight="700" fill="#1A2A2B">Type B2</text>
      <text x="498" y="218" text-anchor="middle" font-size="11" fill="#5A6E70">non-loop / stretched</text>
    </g>
    <g>
      <rect x="604" y="32" width="180" height="150" rx="12" fill="#12383A"/>
      <path d="M628 70 C660 50 700 90 668 118 C640 142 720 130 748 160" fill="none" stroke="#6F8F3A" stroke-width="9" stroke-linecap="round"/>
      <text x="694" y="202" text-anchor="middle" font-size="15" font-weight="700" fill="#1A2A2B">Type B3</text>
      <text x="694" y="218" text-anchor="middle" font-size="11" fill="#5A6E70">highly dilated (~3x B2)</text>
    </g>
    <text x="400" y="246" text-anchor="middle" font-size="13" font-weight="700" fill="#1A2A2B">AVA</text>
    <g>
      <rect x="130" y="256" width="160" height="70" rx="10" fill="#FFFFFF" stroke="#D8E4E5"/>
      <circle cx="210" cy="284" r="10" fill="none" stroke="#C47848" stroke-width="2"/>
      <g fill="none" stroke="#C47848" stroke-width="1.4">
        <path d="M188 270 C196 264 204 264 210 274"/>
        <path d="M230 270 C222 264 214 264 210 274"/>
        <path d="M188 298 C196 304 204 304 210 294"/>
        <path d="M232 298 C224 304 216 304 210 294"/>
      </g>
      <text x="210" y="316" text-anchor="middle" font-size="12" fill="#1A2A2B">small &lt;0.5 mm</text>
    </g>
    <g>
      <rect x="320" y="256" width="160" height="70" rx="10" fill="#FFFFFF" stroke="#D8E4E5"/>
      <circle cx="400" cy="284" r="18" fill="none" stroke="#C47848" stroke-width="2"/>
      <g fill="none" stroke="#C47848" stroke-width="1.4">
        <path d="M372 264 C384 254 396 254 400 266"/>
        <path d="M428 264 C416 254 404 254 400 266"/>
        <path d="M372 304 C384 314 396 314 400 302"/>
        <path d="M428 304 C416 314 404 314 400 302"/>
      </g>
      <text x="400" y="316" text-anchor="middle" font-size="12" fill="#1A2A2B">middle 0.5-3 mm</text>
    </g>
    <g>
      <rect x="510" y="256" width="160" height="70" rx="10" fill="#FFFFFF" stroke="#D8E4E5"/>
      <circle cx="590" cy="284" r="26" fill="none" stroke="#C47848" stroke-width="2"/>
      <g fill="none" stroke="#C47848" stroke-width="1.4">
        <path d="M556 260 C568 246 584 246 590 262"/>
        <path d="M624 260 C612 246 596 246 590 262"/>
        <path d="M556 308 C568 322 584 322 590 306"/>
        <path d="M624 308 C612 322 596 322 590 306"/>
      </g>
      <text x="590" y="316" text-anchor="middle" font-size="12" fill="#1A2A2B">large &gt;3 mm</text>
    </g>
  </g>
</svg>
